<svg width="141" height="116" viewBox="0 0 141 116" fill="none" xmlns="http://www.w3.org/2000/svg">
<g clip-path="url(#clip0_2285_60)">
<path opacity="0.7" d="M137.7 52.9899L139.4 52.4899L138.03 46.9299L136 47.4699" fill="url(#paint0_linear_2285_60)"/>
<path opacity="0.3" d="M13.88 110.8C13.88 112.28 28.06 114.76 45.58 114.76C63.1 114.76 77.32 112.28 77.32 110.8C77.32 110.06 73.15 109.86 67.45 109.04C66.83 108.95 65.67 112.45 63.52 112.34C62.06 112.26 60.36 112.84 56.87 111.94C55.23 111.51 54.04 108.03 53.26 108.01C50.21 107.93 48.97 108.11 45.6 108.11C43.97 108.11 43.44 108.21 41.88 108.19C41.15 108.18 40.37 111.38 39.02 111.89C38.06 112.26 36.05 112.68 33.54 112.62C31.44 112.56 30.15 110.97 29.09 110.64C28.36 110.41 28.84 108.59 28.03 108.63C19.06 109.12 13.88 109.84 13.88 110.8Z" fill="#262626"/>
<path opacity="0.3" d="M82.2799 111.03C82.2799 113.29 95.2799 115.12 111.33 115.12C127.38 115.12 136.38 113.29 136.38 111.03C136.38 109.9 134.03 109.95 131.56 109.32C130.52 109.06 130.72 112.04 128.76 111.87C127.43 111.75 127.18 113.99 123.84 113.02C116.57 110.89 118.39 108.18 117.67 108.14C114.88 108.01 114.57 108.25 111.48 108.25C109.99 108.25 110.17 108.24 108.74 108.21C108.08 108.19 107.23 110.52 106 111.3C105.12 111.86 102.61 112.65 100.31 112.55C98.3799 112.46 97.8499 110.69 96.8699 110.19C96.1999 109.84 95.2899 108.3 94.5499 108.36C86.3199 109.09 82.2799 109.57 82.2799 111.03Z" fill="#262626"/>
<path d="M26.94 26.7301C26.42 28.4301 26.06 30.0101 25.97 31.8701C25.45 42.5101 33.65 51.5501 44.29 52.0701C54.93 52.5901 63.97 44.3901 64.49 33.7501C65.01 23.1101 56.81 14.0701 46.17 13.5501C41.04 13.3001 36.28 15.0801 32.67 18.1801C32.68 18.1801 28.55 21.4901 26.94 26.7301Z" stroke="var(--illustration-stroke-color, #686868)" stroke-miterlimit="10" stroke-linecap="round" stroke-linejoin="round"/>
<path d="M62.76 78.29L67.67 104.2C67.86 105.22 67.9 106.27 67.66 107.27C66.88 110.51 63.99 112.96 60.5 113.04C56.41 113.14 54.21 110.35 52.77 105.87L47.95 89.81L42.86 86.11" stroke="var(--illustration-stroke-color, #686868)" stroke-miterlimit="10" stroke-linecap="round" stroke-linejoin="round"/>
<path d="M59.96 45.4602C65.86 49.5302 71.57 56.4502 75.76 62.4302C78.55 66.4202 76.91 71.6002 72.31 73.1902" stroke="var(--illustration-stroke-color, #686868)" stroke-miterlimit="10" stroke-linecap="round" stroke-linejoin="round"/>
<path d="M60.37 65.7202C60.37 65.7202 56.52 54.7502 63 47.9302" stroke="var(--illustration-stroke-color, #686868)" stroke-miterlimit="10" stroke-linecap="round" stroke-linejoin="round"/>
<path d="M60.33 66.2401C60.33 66.2401 53.45 59.0401 58.32 47.0701" stroke="var(--illustration-stroke-color, #686868)" stroke-miterlimit="10" stroke-linecap="round" stroke-linejoin="round"/>
<path d="M68.1699 52.8002L68.8799 46.9702C68.9399 45.6802 67.9499 44.5902 66.6599 44.5302L60.8099 44.1702" stroke="var(--illustration-stroke-color, #686868)" stroke-miterlimit="10" stroke-linecap="round" stroke-linejoin="round"/>
<path d="M62.5999 24.8302C60.1299 24.8002 58.9199 24.7102 54.5399 24.8002C46.8599 24.9602 43.5599 27.8202 42.1899 29.7502C41.5299 30.6802 41.3699 32.6002 41.4599 33.7302C41.7899 37.6202 44.7499 46.9102 59.4299 45.7202" stroke="var(--illustration-stroke-color, #686868)" stroke-miterlimit="10" stroke-linecap="round" stroke-linejoin="round"/>
<path d="M29.43 58.1799C29.43 58.1799 28.15 70.4799 28.26 75.2399L27.57 105.34C27.48 109.54 30.91 112.97 35.12 112.88C38.76 112.8 41.79 110.09 42.28 106.48L43.87 87.3099" stroke="var(--illustration-stroke-color, #686868)" stroke-miterlimit="10" stroke-linecap="round" stroke-linejoin="round"/>
<path d="M32.47 47.46C29.88 48.77 29.43 58.39 29.43 58.39C25.54 54.9 28.71 43.77 28.71 43.77" stroke="var(--illustration-stroke-color, #686868)" stroke-miterlimit="10" stroke-linecap="round" stroke-linejoin="round"/>
<path d="M42.7999 11.48L42.9899 13.6" stroke="var(--illustration-stroke-color, #686868)" stroke-miterlimit="10" stroke-linecap="round" stroke-linejoin="round"/>
<path d="M42.2999 11.2901C43.8077 11.2901 45.0299 10.0678 45.0299 8.56008C45.0299 7.05234 43.8077 5.83008 42.2999 5.83008C40.7922 5.83008 39.5699 7.05234 39.5699 8.56008C39.5699 10.0678 40.7922 11.2901 42.2999 11.2901Z" fill="#FF8853"/>
<path d="M42.2999 11.2901C43.8077 11.2901 45.0299 10.0678 45.0299 8.56008C45.0299 7.05234 43.8077 5.83008 42.2999 5.83008C40.7922 5.83008 39.5699 7.05234 39.5699 8.56008C39.5699 10.0678 40.7922 11.2901 42.2999 11.2901Z" stroke="var(--illustration-stroke-color, #686868)" stroke-miterlimit="10" stroke-linecap="round" stroke-linejoin="round"/>
<path d="M40.24 61.4999H36.17C35.93 61.4999 35.74 61.3099 35.74 61.0699V56.8599C35.74 56.6199 35.93 56.4299 36.17 56.4299H40.24C40.48 56.4299 40.67 56.6199 40.67 56.8599V61.0699C40.67 61.3099 40.48 61.4999 40.24 61.4999Z" stroke="var(--illustration-stroke-color, #686868)" stroke-miterlimit="10" stroke-linecap="round" stroke-linejoin="round"/>
<path d="M28.83 43.0699C28.83 43.0699 22.15 49.4499 8.04996 41.8699C6.79996 41.1999 5.56996 41.2299 4.47996 41.6399C1.94996 42.6099 0.559963 45.4599 1.32996 48.0599C1.54996 48.7999 1.93996 49.5799 2.57996 50.2999C4.30996 52.2199 7.72996 55.0199 8.78996 55.5899C14.05 58.4099 18.69 60.2899 29.22 59.0299" stroke="var(--illustration-stroke-color, #686868)" stroke-miterlimit="10" stroke-linecap="round" stroke-linejoin="round"/>
<path d="M123.05 11.4201C124.591 11.4201 125.84 10.171 125.84 8.63009C125.84 7.08921 124.591 5.84009 123.05 5.84009C121.509 5.84009 120.26 7.08921 120.26 8.63009C120.26 10.171 121.509 11.4201 123.05 11.4201Z" fill="#FF8853"/>
<path d="M123.05 11.4201C124.591 11.4201 125.84 10.171 125.84 8.63009C125.84 7.08921 124.591 5.84009 123.05 5.84009C121.509 5.84009 120.26 7.08921 120.26 8.63009C120.26 10.171 121.509 11.4201 123.05 11.4201Z" stroke="var(--illustration-stroke-color, #686868)" stroke-miterlimit="10" stroke-linecap="round" stroke-linejoin="round"/>
<path d="M121.49 10.95L120.2 13.11" stroke="var(--illustration-stroke-color, #686868)" stroke-miterlimit="10" stroke-linecap="round" stroke-linejoin="round"/>
<path d="M93.8099 39.27C100.09 38.3 104.28 32.25 104.14 25.75C104.05 21.62 101.51 18.22 97.7499 16.21" stroke="var(--illustration-stroke-color, #686868)" stroke-miterlimit="10" stroke-linecap="round" stroke-linejoin="round"/>
<path d="M115.48 32.43C117.109 32.43 118.43 31.1093 118.43 29.48C118.43 27.8508 117.109 26.53 115.48 26.53C113.851 26.53 112.53 27.8508 112.53 29.48C112.53 31.1093 113.851 32.43 115.48 32.43Z" stroke="var(--illustration-stroke-color, #686868)" stroke-miterlimit="10" stroke-linecap="round" stroke-linejoin="round"/>
<path d="M33.68 37.9C35.3092 37.9 36.63 36.5792 36.63 34.95C36.63 33.3208 35.3092 32 33.68 32C32.0507 32 30.73 33.3208 30.73 34.95C30.73 36.5792 32.0507 37.9 33.68 37.9Z" stroke="var(--illustration-stroke-color, #686868)" stroke-miterlimit="10" stroke-linecap="round" stroke-linejoin="round"/>
<path d="M110.04 86.79L111.92 87.65C115.6 89.33 117.94 93.02 117.92 97.06L117.85 106.08C117.82 109.8 120.83 112.83 124.55 112.83C124.83 112.83 125.11 112.83 125.39 112.83C129.02 112.82 131.98 109.92 132.07 106.29L132.24 96.99C132.36 93.75 132.39 87.45 132.3 84.21C132.02 73.09 131.21 60.34 128.02 50.44L126.31 44.91L125.57 42.53" stroke="var(--illustration-stroke-color, #686868)" stroke-miterlimit="10" stroke-linecap="round" stroke-linejoin="round"/>
<path d="M132.02 70.95L135.45 70.61C137.66 70.39 139.32 68.52 139.3 66.3C139.22 58.07 136.2 48.54 134.13 43C133.47 41.24 131.5 40.37 129.76 41.06L125.94 42.57" stroke="var(--illustration-stroke-color, #686868)" stroke-miterlimit="10" stroke-linecap="round" stroke-linejoin="round"/>
<path d="M102.93 47.95C101.1 49.43 100.49 58.7 100.49 58.7L99.01 72.37C99.01 72.37 96.84 93.52 94.39 103.47C93.23 108.15 96.78 112.67 101.6 112.67C105.3 112.67 108.43 109.95 108.96 106.29L111.92 87.65" stroke="var(--illustration-stroke-color, #686868)" stroke-miterlimit="10" stroke-linecap="round" stroke-linejoin="round"/>
<path d="M136.33 50.3201L128.7 52.2801" stroke="var(--illustration-stroke-color, #686868)" stroke-miterlimit="10" stroke-linecap="round" stroke-linejoin="round"/>
<path d="M137.7 52.9899L139.4 52.4899L138.03 46.9299L136 47.4699" stroke="var(--illustration-stroke-color, #686868)" stroke-miterlimit="10" stroke-linecap="round" stroke-linejoin="round"/>
<path d="M67.23 78.52L75.63 111.88" stroke="var(--illustration-stroke-color, #686868)" stroke-miterlimit="10" stroke-linecap="round" stroke-linejoin="round"/>
<path d="M65.2899 78.5C69.1614 78.5 72.2999 75.3123 72.2999 71.38C72.2999 67.4477 69.1614 64.26 65.2899 64.26C61.4184 64.26 58.2799 67.4477 58.2799 71.38C58.2799 75.3123 61.4184 78.5 65.2899 78.5Z" stroke="var(--illustration-stroke-color, #686868)" stroke-miterlimit="10" stroke-linecap="round" stroke-linejoin="round"/>
<path d="M133.48 13.75L132.46 14.31L133.48 14.88L134.03 15.91L134.59 14.88L135.61 14.31L134.59 13.75L134.03 12.71L133.48 13.75Z" fill="var(--illustration-stroke-color, #686868)"/>
<path d="M82.3099 48.6101L81.2899 49.1801L82.3099 49.7401L82.8599 50.7701L83.4199 49.7401L84.4299 49.1801L83.4199 48.6101L82.8599 47.5801L82.3099 48.6101Z" fill="var(--illustration-stroke-color, #686868)"/>
<path d="M7.86999 25.4199L6.85999 25.9899L7.86999 26.5499L8.42999 27.5799L8.97998 26.5499L9.99999 25.9899L8.97998 25.4199L8.42999 24.3899L7.86999 25.4199Z" fill="var(--illustration-stroke-color, #686868)"/>
<g opacity="0.9">
<path opacity="0.7" d="M9.02995 10.15H27.25C27.25 10.15 28.02 3.48001 22.5 4.62001C22.5 4.62001 23.45 0.0200077 17.54 0.540008C17.02 0.590008 16.5099 0.800008 16.1399 1.17001C15.7499 1.56001 15.2199 1.89001 15.0699 3.14001C15.0699 3.14001 11.34 2.49001 11.63 6.14001C11.63 6.14001 7.75995 6.18001 9.02995 10.15Z" fill="url(#paint1_linear_2285_60)"/>
</g>
<path d="M8.73002 10.15H26.95C26.95 10.15 27.72 3.48001 22.2 4.62001C22.2 4.62001 23.15 0.0200077 17.24 0.540008C16.72 0.590008 16.21 0.800008 15.84 1.17001C15.45 1.56001 14.92 1.89001 14.77 3.14001C14.77 3.14001 11.04 2.49001 11.33 6.14001C11.33 6.14001 7.46002 6.18001 8.73002 10.15Z" stroke="var(--illustration-stroke-color, #686868)" stroke-miterlimit="10" stroke-linecap="round" stroke-linejoin="round"/>
<g opacity="0.7">
<path opacity="0.9" d="M84.3599 38.6901H73.6399C73.6399 38.6901 73.1899 34.7601 76.4299 35.4301C76.4299 35.4301 75.8699 32.7201 79.3499 33.0301C79.6599 33.0601 79.9599 33.1801 80.1799 33.4001C80.4099 33.6301 80.7199 33.8201 80.8099 34.5601C80.8099 34.5601 83.0099 34.1801 82.8299 36.3301C82.8299 36.3301 85.1099 36.3501 84.3599 38.6901Z" fill="url(#paint2_linear_2285_60)"/>
</g>
<path d="M84.66 38.6901H73.94C73.94 38.6901 73.49 34.7601 76.73 35.4301C76.73 35.4301 76.17 32.7201 79.65 33.0301C79.96 33.0601 80.26 33.1801 80.48 33.4001C80.71 33.6301 81.02 33.8201 81.11 34.5601C81.11 34.5601 83.31 34.1801 83.13 36.3301C83.13 36.3301 85.41 36.3501 84.66 38.6901Z" stroke="var(--illustration-stroke-color, #686868)" stroke-miterlimit="10" stroke-linecap="round" stroke-linejoin="round"/>
<path d="M65.2099 63.9899L64.2699 60.2699C64.0299 59.4799 63.1999 59.0299 62.4099 59.2699C61.6199 59.5099 61.1699 60.3399 61.4099 61.1299L62.2999 64.0699" stroke="var(--illustration-stroke-color, #686868)" stroke-miterlimit="10" stroke-linecap="round" stroke-linejoin="round"/>
<path d="M118.85 58.04L120.75 77.89C121.04 80.87 123.6 83.11 126.59 83C129.71 82.89 132.15 80.28 132.05 77.16" stroke="var(--illustration-stroke-color, #686868)" stroke-miterlimit="10" stroke-linecap="round" stroke-linejoin="round"/>
<path d="M92.49 23.9101C91.97 25.6101 91.61 27.1901 91.52 29.0501C91 39.6901 99.2 48.7401 109.84 49.2601C120.48 49.7801 129.52 41.5801 130.04 30.9401C130.56 20.3001 122.36 11.2601 111.72 10.7401C106.59 10.4901 101.83 12.2701 98.22 15.3701C98.22 15.3601 94.09 18.6801 92.49 23.9101Z" stroke="var(--illustration-stroke-color, #686868)" stroke-miterlimit="10" stroke-linecap="round" stroke-linejoin="round"/>
<path d="M98.65 52.1399L99.95 63.6899" stroke="var(--illustration-stroke-color, #686868)" stroke-miterlimit="10" stroke-linecap="round" stroke-linejoin="round"/>
<path d="M121.84 45.8401C121.84 45.8401 117.41 48.2601 118.85 58.0401" stroke="var(--illustration-stroke-color, #686868)" stroke-miterlimit="10" stroke-linecap="round" stroke-linejoin="round"/>
<path d="M116.59 48.5C116.59 48.5 115.3 56.46 119 61.44" stroke="var(--illustration-stroke-color, #686868)" stroke-miterlimit="10" stroke-linecap="round" stroke-linejoin="round"/>
<path d="M90.53 69.7799C93.9708 69.7799 96.76 66.9503 96.76 63.4599C96.76 59.9695 93.9708 57.1399 90.53 57.1399C87.0893 57.1399 84.3 59.9695 84.3 63.4599C84.3 66.9503 87.0893 69.7799 90.53 69.7799Z" stroke="var(--illustration-stroke-color, #686868)" stroke-miterlimit="10" stroke-linecap="round" stroke-linejoin="round"/>
<path d="M94.9 58.74C94.9 58.74 98.54 50.66 102.64 47.47" stroke="var(--illustration-stroke-color, #686868)" stroke-miterlimit="10" stroke-linecap="round" stroke-linejoin="round"/>
<path d="M90.53 69.78C90.53 69.78 92.53 76.7 98.39 77.11" stroke="var(--illustration-stroke-color, #686868)" stroke-miterlimit="10" stroke-linecap="round" stroke-linejoin="round"/>
<path d="M90.35 69.8401L89.62 111.07" stroke="var(--illustration-stroke-color, #686868)" stroke-miterlimit="10" stroke-linecap="round" stroke-linejoin="round"/>
<path d="M92.3001 57.0001L92.5101 54.0701C92.5701 53.2501 91.9501 52.5301 91.1301 52.4701C90.3101 52.4101 89.5901 53.0301 89.5301 53.8501L89.3101 56.9101" stroke="var(--illustration-stroke-color, #686868)" stroke-miterlimit="10" stroke-linecap="round" stroke-linejoin="round"/>
<path d="M0.5 73.71C0.5 73.71 20.5 74.94 27.6 90.91" stroke="var(--illustration-stroke-color, #686868)" stroke-miterlimit="10" stroke-linecap="round" stroke-linejoin="round"/>
<path d="M132.3 98.51H139.6" stroke="var(--illustration-stroke-color, #686868)" stroke-miterlimit="10" stroke-linecap="round" stroke-linejoin="round"/>
</g>
<defs>
<linearGradient id="paint0_linear_2285_60" x1="139.398" y1="49.9637" x2="136" y2="49.9637" gradientUnits="userSpaceOnUse">
<stop stop-color="#FF7002"/>
<stop offset="0.2957" stop-color="#FE7304"/>
<stop offset="0.4996" stop-color="#FC7C0A"/>
<stop offset="0.6759" stop-color="#F88B15"/>
<stop offset="0.8364" stop-color="#F3A125"/>
<stop offset="0.9849" stop-color="#ECBD39"/>
<stop offset="1" stop-color="#EBC03B"/>
</linearGradient>
<linearGradient id="paint1_linear_2285_60" x1="8.77155" y1="5.32611" x2="27.2817" y2="5.32611" gradientUnits="userSpaceOnUse">
<stop stop-color="#FF7002"/>
<stop offset="0.2957" stop-color="#FE7304"/>
<stop offset="0.4996" stop-color="#FC7C0A"/>
<stop offset="0.6759" stop-color="#F88B15"/>
<stop offset="0.8364" stop-color="#F3A125"/>
<stop offset="0.9849" stop-color="#ECBD39"/>
<stop offset="1" stop-color="#EBC03B"/>
</linearGradient>
<linearGradient id="paint2_linear_2285_60" x1="84.5119" y1="35.8502" x2="73.6214" y2="35.8502" gradientUnits="userSpaceOnUse">
<stop stop-color="#FF7002"/>
<stop offset="0.2957" stop-color="#FE7304"/>
<stop offset="0.4996" stop-color="#FC7C0A"/>
<stop offset="0.6759" stop-color="#F88B15"/>
<stop offset="0.8364" stop-color="#F3A125"/>
<stop offset="0.9849" stop-color="#ECBD39"/>
<stop offset="1" stop-color="#EBC03B"/>
</linearGradient>
<clipPath id="clip0_2285_60">
<rect width="140.1" height="115.12" fill="white"/>
</clipPath>
</defs>
</svg>
