<svg width="560" height="420" viewBox="0 0 560 420" fill="none" xmlns="http://www.w3.org/2000/svg">
<path d="M303.296 168.919L329.207 159.375C329.207 159.375 332.965 183.257 362.633 181.897L374.228 206.793L360.581 237.822L354.772 221.109C354.772 221.109 311.803 225.212 303.273 168.919H303.296Z" fill="white"/>
<path d="M469.78 375.766H337.253C330.786 375.766 325.543 381.003 325.543 387.465C325.543 393.926 330.786 399.164 337.253 399.164H469.78C476.248 399.164 481.491 393.926 481.491 387.465C481.491 381.003 476.248 375.766 469.78 375.766Z" fill="#E5E5E5"/>
<path d="M365.806 186.832C362.187 194.117 358.014 203.914 356.793 214.863L355.363 224.453" fill="white"/>
<path d="M365.806 186.832C362.187 194.117 358.014 203.914 356.793 214.863L355.363 224.453" stroke="#3A3936" stroke-width="2" stroke-linecap="round" stroke-linejoin="round"/>
<path d="M365.817 175.535L357.195 186.784L371.418 285.448L389.307 309.053L445.024 241.718L448.228 283.304L448.182 263.433L452.332 283.626C452.332 283.626 455.236 293.792 470.451 289.85C485.665 285.885 480.547 261.635 480.547 261.635L468.653 216.867L456.85 198.241C456.85 198.241 442.719 184.225 434.904 185.908L436.841 177.218L367.338 175.512H365.817V175.535Z" fill="white"/>
<path d="M402.549 201.362C430.533 200.536 452.536 176.748 451.695 148.229C450.853 119.711 427.486 97.2614 399.502 98.087C371.518 98.9127 349.514 122.701 350.356 151.219C351.197 179.738 374.565 202.188 402.549 201.362Z" fill="white" stroke="#3A3936" stroke-width="2" stroke-linecap="round" stroke-linejoin="round"/>
<path d="M355.463 222.816L348.593 371.687C348.04 383.628 357.584 393.61 369.525 393.61C379.921 393.61 388.727 386.003 390.248 375.721L393.983 323.116C394.144 320.949 396.035 319.336 398.178 319.52L406.247 320.212C408.206 320.373 409.704 321.964 409.797 323.923L411.664 373.209C412.125 384.389 421.323 393.195 432.503 393.195C442.946 393.195 451.337 384.666 451.152 374.223C450.622 345.431 447.556 295.477 446.381 263.204L444.974 240.982" fill="white"/>
<path d="M355.463 222.816L348.593 371.687C348.04 383.628 357.584 393.61 369.525 393.61C379.921 393.61 388.727 386.003 390.248 375.721L393.983 323.116C394.144 320.949 396.035 319.336 398.178 319.52L406.247 320.212C408.206 320.373 409.704 321.964 409.797 323.923L411.664 373.209C412.125 384.389 421.323 393.195 432.503 393.195C442.946 393.195 451.337 384.666 451.152 374.223C450.622 345.431 447.556 295.477 446.381 263.204L444.974 240.982" stroke="#3A3936" stroke-width="2" stroke-linecap="round" stroke-linejoin="round"/>
<path d="M437.277 186.832C434.695 209.585 444.93 240.198 444.93 240.198" stroke="#3A3936" stroke-width="2" stroke-linecap="round" stroke-linejoin="round"/>
<path d="M424 195.824C424 195.824 424.023 231.417 445.047 241.767" stroke="#3A3936" stroke-width="2" stroke-linecap="round" stroke-linejoin="round"/>
<path d="M359.062 122.402C364.595 121.112 370.128 120.581 384.166 122.449C406.366 125.422 415.01 134.782 418.33 140.844C419.92 143.749 419.782 149.374 419.136 152.624C416.923 163.781 409.339 191.421 362.29 181.739" stroke="#3A3936" stroke-width="2" stroke-linecap="round" stroke-linejoin="round"/>
<path d="M427.599 96.4648L425.086 102.597" stroke="#3A3936" stroke-width="2" stroke-linecap="round" stroke-linejoin="round"/>
<path d="M438.496 165.07C441.984 165.07 444.812 162.242 444.812 158.754C444.812 155.265 441.984 152.438 438.496 152.438C435.008 152.438 432.18 155.265 432.18 158.754C432.18 162.242 435.008 165.07 438.496 165.07Z" fill="white" stroke="#3A3936" stroke-width="2" stroke-linecap="round" stroke-linejoin="round"/>
<g opacity="0.7">
<path d="M431.325 95.3371C435.564 95.3371 439.001 91.9003 439.001 87.6607C439.001 83.4212 435.564 79.9844 431.325 79.9844C427.085 79.9844 423.648 83.4212 423.648 87.6607C423.648 91.9003 427.085 95.3371 431.325 95.3371Z" fill="#F36C3D"/>
</g>
<path d="M431.165 96.5598C435.404 96.5598 438.841 93.1229 438.841 88.8834C438.841 84.6439 435.404 81.207 431.165 81.207C426.925 81.207 423.488 84.6439 423.488 88.8834C423.488 93.1229 426.925 96.5598 431.165 96.5598Z" fill="#F58756" stroke="#3A3936" stroke-width="2" stroke-miterlimit="10"/>
<g style="mix-blend-mode:multiply" opacity="0.6">
<path d="M359.453 202.416C359.453 202.416 398.342 213.78 416.599 198.912C416.599 198.912 388.776 205.804 365.816 188.262L359.453 202.416Z" fill="#94968F"/>
</g>
<path d="M355.467 222.815C355.467 222.815 359.179 199.555 365.818 186.83L361.207 182.197C350.419 186.231 331.24 170.648 329.211 159.375" fill="white"/>
<path d="M355.467 222.815C355.467 222.815 359.179 199.555 365.818 186.83L361.207 182.197C350.419 186.231 331.24 170.648 329.211 159.375" stroke="#3A3936" stroke-width="2" stroke-linecap="round" stroke-linejoin="round"/>
<path d="M416.27 218.438H407.003C406.469 218.438 406.035 218.871 406.035 219.406V228.995C406.035 229.53 406.469 229.964 407.003 229.964H416.27C416.805 229.964 417.239 229.53 417.239 228.995V219.406C417.239 218.871 416.805 218.438 416.27 218.438Z" stroke="#3A3936" stroke-width="2" stroke-linecap="round" stroke-linejoin="round"/>
<path d="M439.371 184.918C439.371 184.918 473.488 197.458 481.188 271.548C482.202 281.391 475.263 290.105 466.042 290.405C458.366 290.658 451.612 284.918 450.113 276.804L446.102 255.204" stroke="#3A3936" stroke-width="2" stroke-linecap="round" stroke-linejoin="round"/>
<path d="M302.535 164.449C302.535 164.449 302.973 218.875 354.379 222.172L302.535 164.449Z" fill="white"/>
<path d="M302.535 164.449C302.535 164.449 302.973 218.875 354.379 222.172" stroke="#3A3936" stroke-width="2" stroke-linecap="round" stroke-linejoin="round"/>
<path d="M311.97 172.401C311.647 170.764 311.486 169.127 311.486 167.468V148.565C311.486 147.597 311.717 146.629 312.155 145.776L315.197 139.828L318.263 133.604C322.505 125.006 324.119 115.6 322.966 106.333L320.937 90.2891H299.015L296.986 106.333C295.811 115.623 297.424 125.006 301.689 133.604L304.755 139.828L307.798 145.776C308.236 146.629 308.466 147.597 308.466 148.565V167.468C308.466 169.127 308.305 170.787 307.982 172.401C302.081 172.631 297.563 173.876 297.563 175.352C297.563 177.011 303.118 178.348 309.988 178.348C316.857 178.348 322.413 177.011 322.413 175.352C322.413 173.853 317.918 172.631 311.993 172.401H311.97Z" stroke="#231F20" stroke-width="2" stroke-miterlimit="10"/>
<path d="M309.962 138.191C307.702 138.191 305.628 136.901 304.613 134.872L303.023 131.645C299.473 124.452 298.113 116.592 299.104 108.846L300.787 95.4297H319.113L320.796 108.846C321.764 116.615 320.427 124.452 316.877 131.645L315.287 134.872C314.272 136.901 312.221 138.191 309.939 138.191H309.962Z" fill="#FFDE82"/>
<path d="M315.197 116.823C316.444 116.823 317.456 115.811 317.456 114.564C317.456 113.316 316.444 112.305 315.197 112.305C313.949 112.305 312.938 113.316 312.938 114.564C312.938 115.811 313.949 116.823 315.197 116.823Z" stroke="white" stroke-width="2" stroke-linecap="round" stroke-linejoin="round"/>
<path d="M305.993 104.764C307.241 104.764 308.253 103.753 308.253 102.505C308.253 101.258 307.241 100.246 305.993 100.246C304.746 100.246 303.734 101.258 303.734 102.505C303.734 103.753 304.746 104.764 305.993 104.764Z" stroke="white" stroke-width="2" stroke-linecap="round" stroke-linejoin="round"/>
<path d="M305.141 113.777C305.917 113.777 306.547 113.148 306.547 112.371C306.547 111.594 305.917 110.965 305.141 110.965C304.364 110.965 303.734 111.594 303.734 112.371C303.734 113.148 304.364 113.777 305.141 113.777Z" fill="white"/>
<path d="M308.258 122.285C309.034 122.285 309.664 121.655 309.664 120.879C309.664 120.102 309.034 119.473 308.258 119.473C307.481 119.473 306.852 120.102 306.852 120.879C306.852 121.655 307.481 122.285 308.258 122.285Z" fill="white"/>
<path d="M315.191 101.652C315.968 101.652 316.598 101.023 316.598 100.246C316.598 99.4694 315.968 98.8398 315.191 98.8398C314.415 98.8398 313.785 99.4694 313.785 100.246C313.785 101.023 314.415 101.652 315.191 101.652Z" fill="white"/>
<path d="M310.604 173.001C320.713 173.001 328.908 164.807 328.908 154.698C328.908 144.589 320.713 136.395 310.604 136.395C300.496 136.395 292.301 144.589 292.301 154.698C292.301 164.807 300.496 173.001 310.604 173.001Z" fill="white" stroke="#3A3936" stroke-width="2" stroke-linecap="round" stroke-linejoin="round"/>
<path d="M354.291 182.984C354.291 182.984 346.269 198.821 354.522 221.804L354.291 182.984Z" fill="white"/>
<path d="M354.291 182.984C354.291 182.984 346.269 198.821 354.522 221.804" stroke="#3A3936" stroke-width="2" stroke-linecap="round" stroke-linejoin="round"/>
<path opacity="0.8" d="M269.408 146.652L240.062 147.206L240.823 154.306C240.823 154.306 254.977 149.027 260.879 157.556C266.78 166.085 267.771 172.632 265.627 176.574C265.627 176.574 267.933 177.911 269.408 146.675V146.652Z" fill="url(#paint0_linear_4932_19604)"/>
<path d="M254.354 184.065C262.307 184.065 268.762 177.611 268.762 169.658L269.822 130.008H238.863L239.924 169.658C239.924 177.611 246.378 184.065 254.331 184.065H254.354Z" stroke="#3A3936" stroke-width="2" stroke-linecap="round" stroke-linejoin="round"/>
<path d="M254.363 184.062V212.486" stroke="#3A3936" stroke-width="2" stroke-linecap="round" stroke-linejoin="round"/>
<path d="M263.603 213.457H245.438" stroke="#3A3936" stroke-width="2" stroke-linecap="round" stroke-linejoin="round"/>
<path d="M220.312 378.742H87.7847C81.3172 378.742 76.0742 383.98 76.0742 390.441C76.0742 396.902 81.3172 402.14 87.7847 402.14H220.312C226.779 402.14 232.022 396.902 232.022 390.441C232.022 383.98 226.779 378.742 220.312 378.742Z" fill="#E5E5E5"/>
<path d="M226.466 164.447L228.056 163.893L240.827 154.304C240.827 154.304 252.238 148.011 262.796 159.352C273.354 170.694 258.162 186.047 258.162 186.047C258.162 186.047 236.078 209.053 229.347 211.496C229.347 211.496 240.274 256.125 232.367 273.115C232.367 273.115 229.67 282.52 221.878 287.73L226.742 367.191C226.742 367.191 226.304 386.347 207.148 390.45C207.148 390.45 187.461 390.127 185.479 368.528L180.707 317.905C180.707 317.905 179.647 314.609 173.953 315.116C168.259 315.623 167.706 318.159 167.706 318.159L165.4 371.409C165.4 371.409 164.663 388.629 144.423 391.05C144.423 391.05 122.961 389.666 124.252 367.744L124.898 265.023L117.521 264.447C117.521 264.447 111.02 262.903 112.841 250.132V181.367C112.841 181.367 113.372 171.524 124.252 173.737L147.443 172.331L226.489 164.493L226.466 164.447Z" fill="white"/>
<g style="mix-blend-mode:multiply" opacity="0.6">
<path d="M162.813 188.817C154.952 187.319 146.93 187.065 139 188.08L144.994 179.297L162.836 188.817H162.813Z" fill="#94968F"/>
</g>
<path d="M163.51 188.997C134.994 180.56 118.719 150.592 127.157 122.076C135.594 93.5607 165.561 77.2859 194.077 85.723C210.398 90.5639 223.469 102.828 229.347 118.803C234.787 133.625 233.289 151.445 226.511 164.423" fill="white"/>
<path d="M163.51 188.997C134.994 180.56 118.719 150.592 127.157 122.076C135.594 93.5607 165.561 77.2859 194.077 85.723C210.398 90.5639 223.469 102.828 229.347 118.803C234.787 133.625 233.289 151.445 226.511 164.423" stroke="#3A3936" stroke-width="2" stroke-linecap="round" stroke-linejoin="round"/>
<path d="M225.477 110.574C220.152 111.174 207.98 112.972 197.86 117.029C178.174 124.936 172.411 135.54 170.797 141.879C170.013 144.922 171.443 150.04 172.803 152.875C176.86 161.404 179.857 183.165 215.864 171.824" stroke="#3A3936" stroke-width="2" stroke-linecap="round" stroke-linejoin="round"/>
<path d="M146.404 84.2053C150.6 84.6433 154.357 81.5774 154.795 77.3819C155.233 73.1864 152.167 69.4289 147.972 68.9909C143.776 68.5529 140.019 71.6188 139.581 75.8143C139.143 80.0098 142.209 83.7673 146.404 84.2053Z" fill="#F58756" stroke="#3A3936" stroke-width="2" stroke-miterlimit="10"/>
<path d="M150.777 83.375L153.728 89.6221" stroke="#3A3936" stroke-width="2" stroke-linecap="round" stroke-linejoin="round"/>
<path d="M150.208 156.564C154.404 155.02 156.548 150.387 155.003 146.214C153.459 142.019 148.825 139.875 144.653 141.419C140.48 142.964 138.314 147.597 139.858 151.77C141.379 155.942 146.013 158.109 150.185 156.588C150.185 156.588 150.185 156.588 150.208 156.588V156.564Z" stroke="#3A3936" stroke-width="2" stroke-linecap="round" stroke-linejoin="round"/>
<path d="M217.339 231.46L221.257 277.496L226.767 365.993C226.767 378.164 219.367 390.613 207.173 390.474C195.162 390.336 187.094 381.807 185.504 368.552L180.962 319.128C180.847 316.869 178.98 315.094 176.698 315.094C174.462 315.094 167.638 314.771 167.569 319.082L165.448 370.465C165.448 381.83 156.204 391.051 144.839 391.051C133.475 391.051 124.277 381.83 124.254 370.465V294.254C124.254 294.254 124.945 202.461 144.24 179.316" stroke="#3A3936" stroke-width="2" stroke-linecap="round" stroke-linejoin="round"/>
<path d="M228.911 212.145C228.911 212.145 246.5 274.57 221.234 288.124" stroke="#3A3936" stroke-width="2" stroke-linecap="round" stroke-linejoin="round"/>
<path d="M167.398 229.434C167.398 229.434 152.045 242.089 128.094 235.612" stroke="#3A3936" stroke-width="2" stroke-linecap="round" stroke-linejoin="round"/>
<path d="M170.585 230.492C170.585 230.492 163.369 252.023 126.348 252.645" stroke="#3A3936" stroke-width="2" stroke-linecap="round" stroke-linejoin="round"/>
<path d="M163.513 188.997C163.513 188.997 150.419 185.193 139.031 188.075" stroke="#3A3936" stroke-width="2" stroke-linecap="round" stroke-linejoin="round"/>
<path d="M220.588 216.984C220.588 226.574 217.337 231.461 217.337 231.461L215.793 219.566" stroke="#3A3936" stroke-width="2" stroke-linecap="round" stroke-linejoin="round"/>
<path d="M139 173.715H120.443C116.224 173.715 112.812 177.127 112.812 181.345V257.417C112.812 261.636 116.224 265.048 120.443 265.048H124.869" stroke="#3A3936" stroke-width="2" stroke-linecap="round" stroke-linejoin="round"/>
<path d="M163.508 188.996C196.611 186.392 222.913 168.757 237.413 156.608C244.698 150.453 255.532 151.214 261.894 158.291C267.773 164.838 267.934 174.704 262.263 181.435C246.288 200.315 211.272 233.902 167.404 229.43" stroke="#3A3936" stroke-width="2" stroke-linecap="round" stroke-linejoin="round"/>
<path d="M470.267 25.5818L471.835 30.6072C472.042 31.2988 472.595 31.852 473.264 32.1056L478.358 33.8806L473.264 35.6556C472.572 35.8862 472.042 36.4394 471.835 37.154L470.267 42.1794L468.7 37.154C468.492 36.4625 467.939 35.9092 467.27 35.6556L462.176 33.8806L467.27 32.1056C467.962 31.8751 468.492 31.3218 468.7 30.6072L470.267 25.5818ZM470.267 17.8594L466.487 29.9157L455.168 33.8806L466.487 37.8456L470.267 49.9019L474.048 37.8456L485.366 33.8806L474.048 29.9157L470.267 17.8594Z" fill="#3A3936"/>
<path d="M75.7945 272.726L77.362 277.752C77.5695 278.443 78.1228 278.997 78.7913 279.25L83.8858 281.025L78.7913 282.8C78.0997 283.031 77.5695 283.584 77.362 284.299L75.7945 289.324L74.2269 284.299C74.0195 283.607 73.4662 283.054 72.7977 282.8L67.7032 281.025L72.7977 279.25C73.4893 279.02 74.0195 278.466 74.2269 277.752L75.7945 272.726ZM75.7945 265.004L72.0139 277.06L60.6953 281.025L72.0139 284.99L75.7945 297.046L79.575 284.99L90.8937 281.025L79.575 277.06L75.7945 265.004Z" fill="#3A3936"/>
<path d="M254.354 73.4622C256.85 73.4622 258.872 71.4393 258.872 68.944C258.872 66.4487 256.85 64.4258 254.354 64.4258C251.859 64.4258 249.836 66.4487 249.836 68.944C249.836 71.4393 251.859 73.4622 254.354 73.4622Z" stroke="#3A3936" stroke-width="2" stroke-linecap="round" stroke-linejoin="round"/>
<path d="M481.483 182.868C483.978 182.868 486.001 180.846 486.001 178.35C486.001 175.855 483.978 173.832 481.483 173.832C478.988 173.832 476.965 175.855 476.965 178.35C476.965 180.846 478.988 182.868 481.483 182.868Z" stroke="#3A3936" stroke-width="2" stroke-linecap="round" stroke-linejoin="round"/>
<defs>
<linearGradient id="paint0_linear_4932_19604" x1="263.668" y1="143.333" x2="249.767" y2="167.399" gradientUnits="userSpaceOnUse">
<stop offset="0.04" stop-color="#F0502E"/>
<stop offset="0.34" stop-color="#D8482F"/>
<stop offset="0.96" stop-color="#9D3533"/>
<stop offset="1" stop-color="#9A3434"/>
</linearGradient>
</defs>
</svg>
